<?xml version="1.0" encoding="UTF-8" standalone="no"?>
<!DOCTYPE svg PUBLIC "-//W3C//DTD SVG 1.1//EN" "http://www.w3.org/Graphics/SVG/1.1/DTD/svg11.dtd">
<!-- Generated by Microsoft Visio, SVG Export pelion_client_states.svg Drawing -->
<svg xmlns="http://www.w3.org/2000/svg" xmlns:xlink="http://www.w3.org/1999/xlink" xmlns:ev="http://www.w3.org/2001/xml-events"
		width="8.26772in" height="11.6929in" viewBox="0 0 595.276 841.89" xml:space="preserve" color-interpolation-filters="sRGB"
		class="st17">
	<style type="text/css">
	<![CDATA[
		.st1 {stroke:#333f48;stroke-dasharray:1,4;stroke-linecap:butt;stroke-width:1}
		.st2 {stroke:#c8ced3;stroke-linecap:butt;stroke-width:0.5}
		.st3 {fill:#ffffff;stroke:none;stroke-linecap:butt;stroke-width:7.2}
		.st4 {fill:#c8ced3;font-family:Calibri;font-size:1.00001em}
		.st5 {stroke:#c8ced3;stroke-dasharray:4,2;stroke-linecap:butt;stroke-width:0.5}
		.st6 {fill:#d0df00;stroke:none;stroke-width:1}
		.st7 {fill:#333f48;font-family:Calibri;font-size:0.75em}
		.st8 {font-size:1em}
		.st9 {fill:#d9e1e2;stroke:none;stroke-width:1}
		.st10 {fill:#ffcd00;stroke:none;stroke-width:1}
		.st11 {fill:#0033a0;stroke:none;stroke-width:1}
		.st12 {fill:#feffff;font-family:Calibri;font-size:0.75em}
		.st13 {fill:#00a9ce;stroke:#feffff;stroke-width:1}
		.st14 {fill:#feffff;font-family:Calibri;font-size:1.00001em}
		.st15 {fill:#feffff;font-family:Calibri;font-size:0.916672em}
		.st16 {fill:#feffff;font-family:Calibri;font-size:0.833336em}
		.st17 {fill:none;fill-rule:evenodd;font-size:12px;overflow:visible;stroke-linecap:square;stroke-miterlimit:3}
	]]>
	</style>

	<g>
		<title>Drawing</title>
		<g id="shape53-1" transform="translate(434.148,-475.268)">
			<title>Dynamic connector.53</title>
			<path d="M0 835.27 L-361.7 835.27 L-361.7 834.34" class="st1"/>
		</g>
		<g id="shape2-4" transform="translate(859.89,18) rotate(90)">
			<title>Sheet.2</title>
			<desc>Max 750 px</desc>
			<path d="M0 841.89 L566.93 841.89" class="st2"/>
			<rect x="255.275" y="834.69" width="56.3791" height="14.4001" class="st3"/>
			<text x="255.28" y="845.49" class="st4">Max 750 px</text>		</g>
		<g id="shape3-9" transform="translate(18,-823.89)">
			<title>Sheet.3</title>
			<desc>Max 700 px</desc>
			<path d="M0 841.89 L524.41 841.89" class="st2"/>
			<rect x="234.015" y="834.69" width="56.3791" height="14.4001" class="st3"/>
			<text x="234.02" y="845.49" class="st4">Max 700 px</text>		</g>
		<g id="shape4-14" transform="translate(1384.3,18) rotate(90)">
			<title>Sheet.4</title>
			<path d="M0 841.89 L566.93 841.89" class="st5"/>
		</g>
		<g id="shape5-17" transform="translate(18,-256.961)">
			<title>Sheet.5</title>
			<path d="M0 841.89 L524.41 841.89" class="st5"/>
		</g>
		<g id="shape34-20" transform="translate(18,-572.598)">
			<title>Circle.217</title>
			<desc>Pelion module initialization</desc>
			<path d="M0 809.29 A32.5984 32.5984 0 0 1 65.2 809.29 A32.5984 32.5984 0 1 1 -0 809.29 Z" class="st6"/>
			<text x="6.25" y="806.59" class="st7">Pelion module <tspan x="10.2" dy="1.2em" class="st8">initialization</tspan></text>		</g>
		<g id="shape38-24" transform="translate(18,-496.063)">
			<title>Circle.38</title>
			<desc>OMA resource creation</desc>
			<path d="M0 809.29 A32.5984 32.5984 0 0 1 65.2 809.29 A32.5984 32.5984 0 1 1 -0 809.29 Z" class="st9"/>
			<text x="6.13" y="806.59" class="st7">OMA resource <tspan x="17.45" dy="1.2em" class="st8">creation</tspan></text>		</g>
		<g id="shape44-28" transform="translate(18,-728.504)">
			<title>Circle.44</title>
			<desc>Application start</desc>
			<path d="M0 809.29 A32.5984 32.5984 0 0 1 65.2 809.29 A32.5984 32.5984 0 1 1 -0 809.29 Z" class="st10"/>
			<text x="11.86" y="806.59" class="st7">Application <tspan x="24.1" dy="1.2em" class="st8">start</tspan></text>		</g>
		<g id="shape49-32" transform="translate(18,-402.52)">
			<title>Circle.49</title>
			<desc>Publish data (empty data buffers)</desc>
			<path d="M0 809.29 A32.5984 32.5984 0 0 1 65.2 809.29 A32.5984 32.5984 0 1 1 -0 809.29 Z" class="st11"/>
			<text x="10.16" y="801.19" class="st12">Publish data <tspan x="10.29" dy="1.2em" class="st8">(empty data </tspan><tspan
						x="18.19" dy="1.2em" class="st8">buffers)</tspan></text>		</g>
		<g id="shape55-37" transform="translate(104.457,-728.89)">
			<title>Sheet.55</title>
			<desc>NET_STATE_DISABLED</desc>
			<ellipse cx="70.8662" cy="809.678" rx="70.8662" ry="32.2119" class="st13"/>
			<text x="16.32" y="813.28" class="st14">NET_STATE_DISABLED</text>		</g>
		<g id="shape56-40" transform="translate(267.449,-728.89)">
			<title>Sheet.56</title>
			<desc>PELION_STATE_DISABLED</desc>
			<ellipse cx="70.8662" cy="809.678" rx="70.8662" ry="32.2119" class="st13"/>
			<text x="8.14" y="813.28" class="st14">PELION_STATE_DISABLED</text>		</g>
		<g id="shape57-43" transform="translate(267.449,-581.747)">
			<title>Sheet.57</title>
			<desc>PELION_STATE_INITIALIZED</desc>
			<ellipse cx="70.8662" cy="809.678" rx="70.8662" ry="32.2119" class="st13"/>
			<text x="9.3" y="812.98" class="st15">PELION_STATE_INITIALIZED</text>		</g>
		<g id="shape58-46" transform="translate(267.449,-496.063)">
			<title>Sheet.58</title>
			<desc>PELION_STATE_REGISTERED</desc>
			<ellipse cx="70.8662" cy="809.678" rx="70.8662" ry="32.2119" class="st13"/>
			<text x="7.74" y="812.98" class="st15">PELION_STATE_REGISTERED</text>		</g>
		<g id="shape59-49" transform="translate(297.638,-293.772)">
			<title>Sheet.59</title>
			<desc>PELION_STATE_UNREGISTERED</desc>
			<ellipse cx="70.8662" cy="809.678" rx="70.8662" ry="32.2119" class="st13"/>
			<text x="7.04" y="812.68" class="st16">PELION_STATE_UNREGISTERED</text>		</g>
		<g id="shape60-52" transform="translate(104.457,-651.969)">
			<title>Sheet.60</title>
			<desc>NET_STATE_DISCONNECTED</desc>
			<ellipse cx="70.8662" cy="809.678" rx="70.8662" ry="32.2119" class="st13"/>
			<text x="7.38" y="812.98" class="st15">NET_STATE_DISCONNECTED</text>		</g>
		<g id="shape61-55" transform="translate(104.457,-496.063)">
			<title>Sheet.61</title>
			<desc>NET_STATE_CONNECTED</desc>
			<ellipse cx="70.8662" cy="809.678" rx="70.8662" ry="32.2119" class="st13"/>
			<text x="14.67" y="812.98" class="st15">NET_STATE_CONNECTED</text>		</g>
	</g>
</svg>
